<svg width="437" height="435" viewBox="0 0 437 435" fill="none" xmlns="http://www.w3.org/2000/svg">
<path d="M437 382.271H0V382.563H437V382.271Z" fill="#EBEBEB"/>
<path d="M143.853 400.276H114.906V400.567H143.853V400.276Z" fill="#EBEBEB"/>
<path d="M226.226 397.111H218.631V397.403H226.226V397.111Z" fill="#EBEBEB"/>
<path d="M62.6217 392.184H45.8496V392.476H62.6217V392.184Z" fill="#EBEBEB"/>
<path d="M363.392 390.223H340.598V390.515H363.392V390.223Z" fill="#EBEBEB"/>
<path d="M332.811 390.223H312.324V390.515H332.811V390.223Z" fill="#EBEBEB"/>
<path d="M393.222 404.234H311.346V404.526H393.222V404.234Z" fill="#EBEBEB"/>
<path d="M207.137 330.197H38.3763C37.0543 330.193 35.7872 329.49 34.8531 328.24C33.9191 326.99 33.3945 325.296 33.3945 323.53V6.6086C33.406 4.85256 33.9357 3.1735 34.8685 1.93613C35.8013 0.698758 37.0618 0.00300818 38.3763 0H207.137C208.461 0 209.73 0.702412 210.666 1.95271C211.602 3.20302 212.128 4.89879 212.128 6.66698V323.53C212.128 325.298 211.602 326.994 210.666 328.244C209.73 329.494 208.461 330.197 207.137 330.197V330.197ZM38.3763 0.23352C37.1122 0.236613 35.9007 0.909634 35.0076 2.10486C34.1146 3.30008 33.613 4.91984 33.613 6.6086V323.53C33.613 325.218 34.1146 326.838 35.0076 328.033C35.9007 329.228 37.1122 329.902 38.3763 329.905H207.137C208.402 329.902 209.614 329.229 210.509 328.034C211.403 326.839 211.907 325.219 211.909 323.53V6.6086C211.907 4.91877 211.403 3.29904 210.509 2.10415C209.614 0.909255 208.402 0.236607 207.137 0.23352H38.3763Z" fill="#EBEBEB"/>
<path d="M396.192 330.197H227.422C226.099 330.193 224.831 329.49 223.896 328.24C222.96 326.991 222.434 325.297 222.432 323.53V6.6086C222.445 4.8515 222.977 3.17245 223.911 1.9354C224.845 0.69835 226.107 0.00297538 227.422 0H396.192C397.505 0.00607676 398.763 0.703184 399.694 1.94023C400.625 3.17727 401.153 4.85458 401.165 6.6086V323.53C401.165 325.294 400.641 326.986 399.709 328.236C398.777 329.485 397.512 330.19 396.192 330.197V330.197ZM227.422 0.23352C226.157 0.236607 224.945 0.909255 224.05 2.10415C223.156 3.29904 222.652 4.91877 222.65 6.6086V323.53C222.652 325.219 223.156 326.839 224.05 328.034C224.945 329.229 226.157 329.902 227.422 329.905H396.192C397.456 329.902 398.669 329.229 399.563 328.034C400.458 326.839 400.961 325.219 400.964 323.53V6.6086C400.961 4.91877 400.458 3.29904 399.563 2.10415C398.669 0.909255 397.456 0.236607 396.192 0.23352H227.422Z" fill="#EBEBEB"/>
<path d="M278.456 378.792H299.039V258.483H278.456V378.792Z" fill="#F0F0F0"/>
<path d="M204.473 382.271H295.098V378.792H204.473V382.271Z" fill="#F0F0F0"/>
<path d="M278.457 258.483H200.514V378.792H278.457V258.483Z" fill="#F5F5F5"/>
<path d="M270.362 265.231H208.605V315.952H270.362V265.231Z" fill="#F0F0F0"/>
<path d="M270.362 321.323H208.605V372.043H270.362V321.323Z" fill="#F0F0F0"/>
<path d="M255.497 274.07H223.483C222.482 274.072 221.49 273.809 220.565 273.297C219.641 272.785 218.801 272.033 218.094 271.086C217.388 270.139 216.828 269.014 216.448 267.777C216.068 266.54 215.874 265.214 215.879 263.877H263.075C263.08 265.211 262.887 266.534 262.509 267.769C262.13 269.004 261.573 270.127 260.869 271.073C260.165 272.02 259.328 272.772 258.407 273.287C257.485 273.801 256.496 274.067 255.497 274.07V274.07Z" fill="#F5F5F5"/>
<path d="M255.496 330.161H223.482C221.467 330.161 219.536 329.092 218.111 327.19C216.687 325.287 215.887 322.706 215.887 320.015H263.083C263.083 322.704 262.284 325.283 260.861 327.186C259.439 329.088 257.509 330.158 255.496 330.161V330.161Z" fill="#F5F5F5"/>
<path d="M362.519 378.792H383.102V258.483H362.519V378.792Z" fill="#F0F0F0"/>
<path d="M288.525 382.271H379.15V378.792H288.525V382.271Z" fill="#F0F0F0"/>
<path d="M362.518 258.483H284.574V378.792H362.518V258.483Z" fill="#F5F5F5"/>
<path d="M354.425 265.231H292.668V315.952H354.425V265.231Z" fill="#F0F0F0"/>
<path d="M354.425 321.323H292.668V372.043H354.425V321.323Z" fill="#F0F0F0"/>
<path d="M339.549 274.07H307.535C305.52 274.07 303.588 273.001 302.164 271.098C300.74 269.195 299.939 266.615 299.939 263.924H347.135C347.135 266.613 346.336 269.192 344.914 271.094C343.492 272.997 341.562 274.067 339.549 274.07V274.07Z" fill="#F5F5F5"/>
<path d="M339.549 330.161H307.535C305.52 330.161 303.588 329.092 302.164 327.19C300.74 325.287 299.939 322.706 299.939 320.015H347.135C347.135 322.704 346.336 325.283 344.914 327.186C343.492 329.088 341.562 330.158 339.549 330.161V330.161Z" fill="#F5F5F5"/>
<path d="M97.3815 96.8405H132.639V42.3955L97.3815 42.3955V96.8405Z" fill="#E6E6E6"/>
<path d="M93.3617 96.8405H131.695V42.3955L93.3617 42.3955V96.8405Z" fill="#F5F5F5"/>
<path d="M128.479 92.5554V46.6922H96.5688V92.5554H128.479Z" fill="white"/>
<path d="M120.752 81.4399V79.7702C120.75 73.9464 119.017 68.3619 115.935 64.2438C112.852 60.1257 108.672 57.8108 104.312 57.8077V57.8077V59.4774C104.313 65.3022 106.045 70.8885 109.128 75.0072C112.211 79.126 116.392 81.4399 120.752 81.4399V81.4399Z" fill="#F5F5F5"/>
<path d="M250.524 199.601L383.109 199.601V33.9187L250.524 33.9187L250.524 199.601Z" fill="#E6E6E6"/>
<path d="M246.415 199.601L381.186 199.601V33.9187L246.415 33.9187L246.415 199.601Z" fill="#F0F0F0"/>
<path d="M250.524 205.509L383.109 205.509V199.601L250.524 199.601V205.509Z" fill="#E6E6E6"/>
<path d="M239.563 205.509L374.334 205.509V199.601L239.563 199.601V205.509Z" fill="#F0F0F0"/>
<path d="M375.428 190.704V42.8158L252.159 42.8158V190.704H375.428Z" fill="#FAFAFA"/>
<path d="M340.475 190.715L319.945 42.8158H286.121L306.651 190.715H340.475Z" fill="white"/>
<path d="M372.769 140.532C372.886 140.52 372.994 140.447 373.071 140.329C373.148 140.211 373.187 140.058 373.18 139.901V48.607C373.18 48.4614 373.137 48.3219 373.06 48.219C372.982 48.116 372.878 48.0582 372.769 48.0582C372.66 48.0582 372.556 48.116 372.479 48.219C372.402 48.3219 372.358 48.4614 372.358 48.607V139.901C372.351 140.058 372.39 140.211 372.467 140.329C372.544 140.447 372.652 140.52 372.769 140.532V140.532Z" fill="#F0F0F0"/>
<path d="M299.38 190.715L278.859 42.8158H265.67L286.191 190.715H299.38Z" fill="white"/>
<path d="M252.893 190.704V42.8158H252.158V190.704H252.893Z" fill="#E6E6E6"/>
<path opacity="0.4" d="M245.053 54.1998H377.63L378.163 46.2835H245.577L245.053 54.1998Z" fill="#E6E6E6"/>
<path opacity="0.4" d="M245.053 63.3188H377.63L378.163 55.3908H245.577L245.053 63.3188Z" fill="#E6E6E6"/>
<path opacity="0.4" d="M245.053 72.4261H377.63L378.163 64.5098H245.577L245.053 72.4261Z" fill="#E6E6E6"/>
<path opacity="0.4" d="M245.053 81.5449H377.63L378.163 73.6169H245.577L245.053 81.5449Z" fill="#E6E6E6"/>
<path opacity="0.4" d="M245.053 90.6523H377.63L378.163 82.736H245.577L245.053 90.6523Z" fill="#E6E6E6"/>
<path opacity="0.4" d="M245.053 99.7712H377.63L378.163 91.8432H245.577L245.053 99.7712Z" fill="#E6E6E6"/>
<path opacity="0.4" d="M245.053 108.878H377.63L378.163 100.962H245.577L245.053 108.878Z" fill="#E6E6E6"/>
<path opacity="0.4" d="M245.053 117.997H377.63L378.163 110.069H245.577L245.053 117.997Z" fill="#E6E6E6"/>
<path opacity="0.4" d="M245.053 127.105H377.63L378.163 119.188H245.577L245.053 127.105Z" fill="#E6E6E6"/>
<path d="M72.3839 185.66H99.8887V143.498H72.3839V185.66Z" fill="#E6E6E6"/>
<path d="M69.2731 185.66H98.9629V143.498H69.2731V185.66Z" fill="#F5F5F5"/>
<path d="M96.4805 182.332V146.814H71.7637V182.332H96.4805Z" fill="white"/>
<path d="M90.4844 165.227V163.931C90.4844 162.813 90.3195 161.707 89.9992 160.675C89.6789 159.643 89.2094 158.706 88.6177 157.916C88.0259 157.127 87.3235 156.501 86.5505 156.074C85.7775 155.648 84.9492 155.429 84.1129 155.431C82.4315 155.443 80.8221 156.344 79.6364 157.937C78.4507 159.529 77.7851 161.684 77.7852 163.931V165.227C77.7852 167.481 78.4555 169.643 79.6488 171.237C80.842 172.831 82.4604 173.727 84.1479 173.727C85.8308 173.718 87.4425 172.818 88.6301 171.225C89.8176 169.632 90.4844 167.475 90.4844 165.227Z" fill="#F5F5F5"/>
<path d="M140.984 170.551H178.75V112.428H140.984V170.551Z" fill="#E6E6E6"/>
<path d="M136.702 170.551H177.623V112.428H136.702V170.551Z" fill="#F5F5F5"/>
<path d="M174.197 165.986V117.028H140.129V165.986H174.197Z" fill="white"/>
<path d="M158.588 132.417L165.055 147.386C165.2 147.72 165.276 148.098 165.275 148.484C165.275 148.869 165.199 149.248 165.055 149.582C164.911 149.916 164.703 150.193 164.453 150.385C164.203 150.578 163.919 150.679 163.631 150.678H150.696C150.407 150.679 150.123 150.578 149.873 150.385C149.623 150.193 149.416 149.916 149.271 149.582C149.127 149.248 149.051 148.869 149.051 148.484C149.051 148.098 149.127 147.72 149.271 147.386L155.739 132.417C155.884 132.085 156.092 131.81 156.342 131.619C156.592 131.428 156.875 131.327 157.163 131.327C157.451 131.327 157.734 131.428 157.984 131.619C158.234 131.81 158.442 132.085 158.588 132.417V132.417Z" fill="#F5F5F5"/>
<path d="M78.678 382.26H99.4355L99.4355 294.83H78.678V382.26Z" fill="#E6E6E6"/>
<path d="M82.6195 382.271H78.6777V367.291H86.7535L82.6195 382.271Z" fill="#F0F0F0"/>
<path d="M156.244 382.26H177.002V294.83H156.244V382.26Z" fill="#E6E6E6"/>
<path d="M78.6871 373.071H159.689V294.83H78.6871L78.6871 373.071Z" fill="#F0F0F0"/>
<path d="M81.7363 299.745V354.354H117.859V299.745H81.7363Z" fill="#E6E6E6"/>
<path d="M120.506 299.745V354.354H156.628V299.745H120.506Z" fill="#E6E6E6"/>
<path d="M134.999 303.937H142.139C143.673 303.943 145.191 303.533 146.602 302.73C148.013 301.927 149.287 300.749 150.346 299.267H126.748C127.812 300.757 129.092 301.94 130.511 302.743C131.93 303.546 133.458 303.953 134.999 303.937V303.937Z" fill="#F0F0F0"/>
<path d="M95.859 303.937H103.008C104.542 303.943 106.06 303.532 107.471 302.729C108.882 301.926 110.156 300.748 111.215 299.267H87.6172C88.6804 300.754 89.9599 301.936 91.3771 302.739C92.7944 303.542 94.3195 303.95 95.859 303.937Z" fill="#F0F0F0"/>
<path d="M155.747 382.271H159.689V367.291H151.613L155.747 382.271Z" fill="#F0F0F0"/>
<path d="M134.377 283.119C134.375 284.309 134.638 285.473 135.131 286.463C135.625 287.453 136.327 288.226 137.15 288.683C137.972 289.14 138.877 289.26 139.751 289.03C140.625 288.799 141.427 288.227 142.058 287.387C142.688 286.546 143.118 285.475 143.292 284.308C143.466 283.141 143.378 281.932 143.037 280.832C142.697 279.733 142.12 278.793 141.38 278.132C140.639 277.471 139.769 277.118 138.878 277.118C137.687 277.121 136.544 277.754 135.701 278.878C134.858 280.003 134.382 281.527 134.377 283.119Z" fill="#E0E0E0"/>
<path d="M140.914 285.221C143.395 285.221 145.407 282.534 145.407 279.219C145.407 275.905 143.395 273.218 140.914 273.218C138.433 273.218 136.422 275.905 136.422 279.219C136.422 282.534 138.433 285.221 140.914 285.221Z" fill="#E0E0E0"/>
<path d="M111.871 284.088C111.871 285.275 112.135 286.435 112.628 287.422C113.122 288.409 113.823 289.178 114.644 289.633C115.465 290.087 116.368 290.206 117.24 289.974C118.111 289.743 118.912 289.171 119.54 288.332C120.168 287.492 120.596 286.423 120.77 285.259C120.943 284.095 120.854 282.888 120.514 281.791C120.174 280.695 119.598 279.758 118.859 279.098C118.121 278.439 117.252 278.087 116.363 278.087C115.172 278.087 114.029 278.719 113.187 279.844C112.344 280.97 111.871 282.496 111.871 284.088V284.088Z" fill="#E0E0E0"/>
<path d="M146.927 287.568C149.973 287.568 152.442 284.269 152.442 280.2C152.442 276.131 149.973 272.833 146.927 272.833C143.881 272.833 141.412 276.131 141.412 280.2C141.412 284.269 143.881 287.568 146.927 287.568Z" fill="#E0E0E0"/>
<path d="M130.488 273.416C130.487 274.874 130.809 276.3 131.413 277.513C132.018 278.726 132.879 279.672 133.887 280.231C134.894 280.791 136.003 280.938 137.074 280.655C138.144 280.372 139.128 279.672 139.9 278.642C140.672 277.612 141.198 276.299 141.412 274.87C141.625 273.44 141.516 271.958 141.099 270.611C140.682 269.264 139.975 268.113 139.068 267.303C138.161 266.493 137.094 266.06 136.003 266.06C134.543 266.064 133.143 266.839 132.109 268.218C131.076 269.596 130.493 271.465 130.488 273.416V273.416Z" fill="#E0E0E0"/>
<path d="M121.748 275.296C121.746 276.754 122.068 278.179 122.673 279.392C123.278 280.606 124.139 281.552 125.146 282.111C126.154 282.67 127.263 282.818 128.334 282.535C129.404 282.252 130.387 281.551 131.16 280.521C131.932 279.492 132.458 278.179 132.671 276.749C132.885 275.32 132.776 273.838 132.359 272.491C131.942 271.144 131.235 269.993 130.328 269.183C129.421 268.373 128.354 267.94 127.263 267.94C125.802 267.94 124.4 268.715 123.366 270.094C122.332 271.473 121.75 273.344 121.748 275.296V275.296Z" fill="#E0E0E0"/>
<path d="M125.445 281.239C125.445 282.625 125.753 283.979 126.329 285.131C126.905 286.283 127.724 287.181 128.683 287.712C129.641 288.242 130.695 288.381 131.712 288.11C132.73 287.84 133.664 287.173 134.397 286.193C135.131 285.213 135.63 283.965 135.833 282.606C136.035 281.247 135.931 279.838 135.534 278.558C135.137 277.278 134.465 276.184 133.603 275.414C132.74 274.645 131.726 274.234 130.689 274.234C129.299 274.234 127.965 274.972 126.981 276.286C125.998 277.599 125.445 279.381 125.445 281.239Z" fill="#E0E0E0"/>
<path d="M116.32 280.784C116.32 282.28 116.652 283.743 117.275 284.987C117.897 286.232 118.782 287.201 119.816 287.774C120.851 288.347 121.99 288.496 123.089 288.204C124.187 287.913 125.196 287.192 125.989 286.134C126.781 285.076 127.32 283.728 127.539 282.26C127.757 280.792 127.645 279.271 127.216 277.888C126.788 276.506 126.062 275.324 125.13 274.493C124.199 273.662 123.104 273.218 121.984 273.218C120.482 273.218 119.041 274.015 117.979 275.434C116.917 276.853 116.32 278.777 116.32 280.784V280.784Z" fill="#E0E0E0"/>
<path d="M155.721 283.119C155.721 283.119 155.109 294.795 131.45 294.795C107.79 294.795 107.17 283.119 107.17 283.119H155.721Z" fill="#F0F0F0"/>
<path d="M218.501 435C312.091 435 387.961 429.082 387.961 421.783C387.961 414.483 312.091 408.566 218.501 408.566C124.911 408.566 49.041 414.483 49.041 421.783C49.041 429.082 124.911 435 218.501 435Z" fill="#F5F5F5"/>
<path d="M268.994 75.777C268.283 72.6396 267.34 69.6044 266.179 66.7165L267.927 59.0687L256.626 43.96L250.902 46.2952C248.74 44.7444 246.468 43.485 244.12 42.5356L241.305 35.53H225.311L222.505 42.5356C220.156 43.4828 217.884 44.7423 215.723 46.2952L209.999 43.96L198.689 59.0687L200.437 66.7165C199.283 69.6072 198.343 72.6418 197.631 75.777L192.344 79.5367V100.904L197.631 104.652C198.341 107.788 199.281 110.823 200.437 113.712L198.689 121.36L209.999 136.469L215.723 134.134C217.886 135.678 220.158 136.933 222.505 137.882L225.311 144.887H241.305L244.12 137.882C246.466 136.931 248.738 135.676 250.902 134.134L256.626 136.469L267.936 121.36L266.188 113.712C267.35 110.825 268.293 107.79 269.002 104.652L274.29 100.904V79.5367L268.994 75.777ZM233.308 120.566C228.814 120.566 224.42 118.786 220.683 115.45C216.946 112.114 214.034 107.373 212.314 101.826C210.594 96.2788 210.144 90.1749 211.021 84.2861C211.898 78.3973 214.062 72.9881 217.24 68.7425C220.418 64.497 224.467 61.6057 228.875 60.4343C233.283 59.263 237.852 59.8642 242.004 62.1619C246.156 64.4595 249.705 68.3505 252.202 73.3428C254.699 78.3351 256.032 84.2044 256.032 90.2085C256.032 98.2599 253.638 105.981 249.376 111.675C245.115 117.368 239.335 120.566 233.308 120.566V120.566Z" fill="#2F4D93"/>
<path opacity="0.2" d="M268.994 75.777C268.283 72.6396 267.34 69.6044 266.179 66.7165L267.927 59.0687L256.626 43.96L250.902 46.2952C248.74 44.7444 246.468 43.485 244.12 42.5356L241.305 35.53H225.311L222.505 42.5356C220.156 43.4828 217.884 44.7423 215.723 46.2952L209.999 43.96L198.689 59.0687L200.437 66.7165C199.283 69.6072 198.343 72.6418 197.631 75.777L192.344 79.5367V100.904L197.631 104.652C198.341 107.788 199.281 110.823 200.437 113.712L198.689 121.36L209.999 136.469L215.723 134.134C217.886 135.678 220.158 136.933 222.505 137.882L225.311 144.887H241.305L244.12 137.882C246.466 136.931 248.738 135.676 250.902 134.134L256.626 136.469L267.936 121.36L266.188 113.712C267.35 110.825 268.293 107.79 269.002 104.652L274.29 100.904V79.5367L268.994 75.777ZM233.308 120.566C228.814 120.566 224.42 118.786 220.683 115.45C216.946 112.114 214.034 107.373 212.314 101.826C210.594 96.2788 210.144 90.1749 211.021 84.2861C211.898 78.3973 214.062 72.9881 217.24 68.7425C220.418 64.497 224.467 61.6057 228.875 60.4343C233.283 59.263 237.852 59.8642 242.004 62.1619C246.156 64.4595 249.705 68.3505 252.202 73.3428C254.699 78.3351 256.032 84.2044 256.032 90.2085C256.032 98.2599 253.638 105.981 249.376 111.675C245.115 117.368 239.335 120.566 233.308 120.566V120.566Z" fill="white"/>
<path d="M233.307 80.1555C231.817 80.1555 230.361 80.7457 229.122 81.8517C227.883 82.9576 226.917 84.5295 226.347 86.3686C225.777 88.2076 225.628 90.2313 225.918 92.1837C226.209 94.136 226.926 95.9294 227.98 97.337C229.034 98.7445 230.376 99.7031 231.838 100.091C233.299 100.48 234.814 100.28 236.19 99.5187C237.567 98.7569 238.744 97.4669 239.572 95.8118C240.399 94.1567 240.841 92.2108 240.841 90.2201C240.841 87.5508 240.047 84.9908 238.635 83.1033C237.222 81.2158 235.305 80.1555 233.307 80.1555V80.1555Z" fill="#2F4D93"/>
<path d="M382.815 109.672C381.799 105.187 380.455 100.846 378.803 96.7121V96.7121L381.303 85.7834L365.16 64.2179L356.971 67.5689C353.887 65.3363 350.639 63.5363 347.278 62.1979V62.1979L343.266 52.1099H320.411L316.391 62.1979C313.031 63.5406 309.783 65.3403 306.698 67.5689V67.5689L298.518 64.2179L282.357 85.8067L284.857 96.7354C283.197 100.865 281.853 105.207 280.845 109.696L273.285 115.055V145.588L280.837 150.959C281.843 155.445 283.187 159.783 284.848 163.907L282.349 174.824L298.509 196.413L306.689 193.074C309.778 195.295 313.029 197.087 316.391 198.421L320.411 208.521H343.266L347.278 198.433C350.636 197.085 353.884 195.285 356.971 193.062L365.16 196.402L381.32 174.813L378.821 163.884C380.468 159.754 381.806 155.417 382.815 150.935V150.935L390.366 145.564V115.032L382.815 109.672ZM331.834 185.648C323.639 185.648 315.628 182.401 308.814 176.319C301.999 170.236 296.688 161.591 293.552 151.476C290.416 141.361 289.595 130.231 291.194 119.493C292.793 108.755 296.74 98.8914 302.534 91.1497C308.329 83.4081 315.713 78.136 323.751 76C331.788 73.8641 340.12 74.9604 347.691 79.1501C355.263 83.3399 361.734 90.4349 366.287 99.5381C370.841 108.641 373.271 119.344 373.271 130.292C373.271 137.562 372.199 144.76 370.117 151.476C368.034 158.192 364.982 164.294 361.134 169.435C357.287 174.575 352.719 178.652 347.691 181.434C342.664 184.216 337.276 185.648 331.834 185.648V185.648Z" fill="#2F4D93"/>
<path d="M331.835 82.7009C324.788 82.7032 317.9 85.497 312.041 90.7291C306.182 95.9612 301.616 103.397 298.921 112.095C296.225 120.794 295.521 130.365 296.897 139.598C298.273 148.831 301.667 157.312 306.651 163.968C311.634 170.625 317.984 175.157 324.896 176.993C331.807 178.829 338.972 177.885 345.482 174.282C351.993 170.679 357.557 164.577 361.472 156.749C365.387 148.921 367.477 139.718 367.477 130.304C367.465 117.681 363.706 105.581 357.024 96.6564C350.343 87.7321 341.284 82.7132 331.835 82.7009V82.7009ZM331.835 171.567C325.726 171.569 319.753 169.151 314.673 164.618C309.592 160.086 305.632 153.642 303.293 146.103C300.954 138.563 300.341 130.266 301.532 122.261C302.723 114.256 305.664 106.903 309.983 101.131C314.302 95.3588 319.806 91.4277 325.797 89.8346C331.789 88.2416 338 89.058 343.644 92.1808C349.289 95.3035 354.113 100.592 357.508 107.378C360.902 114.164 362.714 122.142 362.714 130.304C362.704 141.242 359.448 151.728 353.66 159.463C347.871 167.199 340.023 171.551 331.835 171.567V171.567Z" fill="#2F4D93"/>
<path opacity="0.2" d="M331.835 82.7009C324.788 82.7032 317.9 85.497 312.041 90.7291C306.182 95.9612 301.616 103.397 298.921 112.095C296.225 120.794 295.521 130.365 296.897 139.598C298.273 148.831 301.667 157.312 306.651 163.968C311.634 170.625 317.984 175.157 324.896 176.993C331.807 178.829 338.972 177.885 345.482 174.282C351.993 170.679 357.557 164.577 361.472 156.749C365.387 148.921 367.477 139.718 367.477 130.304C367.465 117.681 363.706 105.581 357.024 96.6564C350.343 87.7321 341.284 82.7132 331.835 82.7009V82.7009ZM331.835 171.567C325.726 171.569 319.753 169.151 314.673 164.618C309.592 160.086 305.632 153.642 303.293 146.103C300.954 138.563 300.341 130.266 301.532 122.261C302.723 114.256 305.664 106.903 309.983 101.131C314.302 95.3588 319.806 91.4277 325.797 89.8346C331.789 88.2416 338 89.058 343.644 92.1808C349.289 95.3035 354.113 100.592 357.508 107.378C360.902 114.164 362.714 122.142 362.714 130.304C362.704 141.242 359.448 151.728 353.66 159.463C347.871 167.199 340.023 171.551 331.835 171.567V171.567Z" fill="black"/>
<path d="M249.968 211.522C249.736 211.522 249.514 211.399 249.35 211.18C249.186 210.961 249.094 210.664 249.094 210.354V208.019C249.094 207.709 249.186 207.412 249.35 207.193C249.514 206.974 249.736 206.851 249.968 206.851C250.2 206.851 250.422 206.974 250.586 207.193C250.75 207.412 250.842 207.709 250.842 208.019V210.354C250.842 210.664 250.75 210.961 250.586 211.18C250.422 211.399 250.2 211.522 249.968 211.522Z" fill="#2F4D93"/>
<path d="M236.358 181.351C235.556 180.662 234.928 179.665 234.558 178.491C234.466 178.206 234.294 177.981 234.078 177.866C233.863 177.751 233.622 177.755 233.409 177.878C233.195 178 233.027 178.23 232.941 178.518C232.855 178.806 232.858 179.128 232.95 179.413C233.463 181.008 234.318 182.364 235.406 183.313C235.547 183.434 235.71 183.499 235.878 183.5C236.067 183.501 236.252 183.421 236.404 183.271C236.556 183.121 236.668 182.909 236.722 182.666C236.776 182.424 236.77 182.165 236.704 181.928C236.639 181.691 236.517 181.488 236.358 181.351V181.351Z" fill="#2F4D93"/>
<path d="M233.308 166.768C233.539 166.768 233.762 166.645 233.926 166.426C234.089 166.207 234.182 165.91 234.182 165.6V161.128C234.182 160.819 234.089 160.522 233.926 160.303C233.762 160.084 233.539 159.961 233.308 159.961C233.076 159.961 232.853 160.084 232.69 160.303C232.526 160.522 232.434 160.819 232.434 161.128V165.6C232.434 165.91 232.526 166.207 232.69 166.426C232.853 166.645 233.076 166.768 233.308 166.768Z" fill="#2F4D93"/>
<path d="M242.408 182.379H239.052C238.82 182.379 238.598 182.502 238.434 182.721C238.27 182.94 238.178 183.237 238.178 183.546C238.178 183.856 238.27 184.153 238.434 184.372C238.598 184.591 238.82 184.714 239.052 184.714H242.408C242.64 184.714 242.862 184.591 243.026 184.372C243.19 184.153 243.282 183.856 243.282 183.546C243.282 183.237 243.19 182.94 243.026 182.721C242.862 182.502 242.64 182.379 242.408 182.379Z" fill="#2F4D93"/>
<path d="M234.182 174.556V170.084C234.182 169.774 234.089 169.477 233.926 169.258C233.762 169.039 233.539 168.916 233.308 168.916C233.076 168.916 232.853 169.039 232.69 169.258C232.526 169.477 232.434 169.774 232.434 170.084V174.556C232.434 174.865 232.526 175.162 232.69 175.381C232.853 175.6 233.076 175.723 233.308 175.723C233.539 175.723 233.762 175.6 233.926 175.381C234.089 175.162 234.182 174.865 234.182 174.556Z" fill="#2F4D93"/>
<path d="M250.789 189.968C250.758 189.662 250.638 189.384 250.455 189.196C250.271 189.007 250.039 188.924 249.81 188.964C249.696 188.989 249.587 189.045 249.489 189.127C249.392 189.209 249.307 189.316 249.24 189.442C249.174 189.567 249.126 189.71 249.101 189.86C249.076 190.011 249.073 190.166 249.093 190.318C249.121 190.589 249.136 190.862 249.137 191.136V194.638C249.137 194.948 249.229 195.245 249.393 195.464C249.557 195.683 249.779 195.806 250.011 195.806C250.243 195.806 250.465 195.683 250.629 195.464C250.793 195.245 250.885 194.948 250.885 194.638V191.136C250.872 190.744 250.84 190.354 250.789 189.968V189.968Z" fill="#2F4D93"/>
<path d="M249.968 197.896C249.736 197.896 249.514 198.019 249.35 198.238C249.186 198.457 249.094 198.754 249.094 199.064V203.547C249.094 203.857 249.186 204.154 249.35 204.373C249.514 204.592 249.736 204.715 249.968 204.715C250.2 204.715 250.422 204.592 250.586 204.373C250.75 204.154 250.842 203.857 250.842 203.547V199.064C250.842 198.754 250.75 198.457 250.586 198.238C250.422 198.019 250.2 197.896 249.968 197.896Z" fill="#2F4D93"/>
<path d="M249.208 185.333C248.352 184.027 247.222 183.096 245.965 182.659C245.854 182.621 245.738 182.612 245.624 182.633C245.51 182.655 245.401 182.706 245.302 182.784C245.203 182.862 245.116 182.966 245.047 183.088C244.978 183.211 244.928 183.351 244.899 183.5C244.87 183.648 244.864 183.803 244.88 183.955C244.896 184.107 244.934 184.254 244.993 184.386C245.051 184.518 245.128 184.634 245.22 184.726C245.312 184.818 245.417 184.886 245.528 184.924C246.447 185.241 247.272 185.92 247.897 186.874C247.979 186.998 248.079 187.098 248.192 187.167C248.305 187.235 248.428 187.271 248.552 187.271C248.72 187.271 248.884 187.206 249.025 187.084C249.167 186.962 249.278 186.788 249.347 186.584C249.417 186.379 249.44 186.153 249.415 185.931C249.391 185.709 249.318 185.501 249.208 185.333Z" fill="#2F4D93"/>
<path d="M233.308 157.766C233.076 157.766 232.853 157.643 232.69 157.424C232.526 157.205 232.434 156.908 232.434 156.598V154.263C232.434 153.953 232.526 153.656 232.69 153.437C232.853 153.218 233.076 153.095 233.308 153.095C233.539 153.095 233.762 153.218 233.926 153.437C234.089 153.656 234.182 153.953 234.182 154.263V156.598C234.182 156.908 234.089 157.205 233.926 157.424C233.762 157.643 233.539 157.766 233.308 157.766Z" fill="#2F4D93"/>
<path d="M291.366 270.31H89V274.642H291.366V270.31Z" fill="#2F4D93"/>
<path d="M291.368 274.642H335.277V270.31H291.368V274.642Z" fill="#2F4D93"/>
<path opacity="0.2" d="M291.368 274.642H335.277V270.31H291.368V274.642Z" fill="black"/>
<path d="M320.609 279.278H103.664L96.4102 274.642H327.863L320.609 279.278Z" fill="#2F4D93"/>
<path opacity="0.6" d="M320.609 279.278H103.664L96.4102 274.642H327.863L320.609 279.278Z" fill="white"/>
<path d="M110.221 279.278V417.451H113L116.496 279.278H110.221Z" fill="#2F4D93"/>
<path d="M143.031 279.278V417.451H145.811L149.307 279.278H143.031Z" fill="#2F4D93"/>
<path d="M320.611 279.278V417.451H317.841L314.336 279.278H320.611Z" fill="#2F4D93"/>
<path d="M287.809 279.278V417.451H285.029L281.533 279.278H287.809Z" fill="#2F4D93"/>
<path d="M221.77 217.862L212.636 267.567L212.383 270.31H275.381L275.643 267.567L284.767 217.862H221.77Z" fill="#2F4D93"/>
<path opacity="0.3" d="M221.77 217.862L212.636 267.567L212.383 270.31H275.381L275.643 267.567L284.767 217.862H221.77Z" fill="black"/>
<path d="M282.836 217.862H219.83L210.705 267.567H273.703L282.836 217.862Z" fill="#2F4D93"/>
<path d="M272.366 265.29L280.669 220.139H221.167L212.873 265.29H272.366Z" fill="white"/>
<path d="M257.288 267.567L257.026 270.31H187.656L187.91 267.567H257.288Z" fill="#2F4D93"/>
<path opacity="0.6" d="M257.288 267.567L257.026 270.31H187.656L187.91 267.567H257.288Z" fill="white"/>
<path d="M126.24 261.273C126.196 259.495 125.675 257.797 124.772 256.489C123.868 255.182 122.643 254.352 121.32 254.151V252.808C121.319 252.73 121.306 252.654 121.282 252.583C121.259 252.512 121.225 252.448 121.183 252.395C121.14 252.341 121.09 252.3 121.036 252.273C120.981 252.245 120.923 252.233 120.865 252.236H111.426C111.368 252.233 111.309 252.245 111.254 252.272C111.199 252.299 111.149 252.341 111.106 252.394C111.063 252.447 111.028 252.511 111.003 252.582C110.979 252.653 110.965 252.73 110.963 252.808V270.322H121.32V268.407C122.645 268.209 123.873 267.378 124.777 266.067C125.681 264.757 126.2 263.054 126.24 261.273ZM121.32 266.142V256.416C122.193 256.588 122.991 257.174 123.568 258.067C124.145 258.959 124.463 260.1 124.463 261.279C124.463 262.459 124.145 263.599 123.568 264.492C122.991 265.384 122.193 265.97 121.32 266.142V266.142Z" fill="#2F4D93"/>
<path d="M302.895 270.31H311.669L309.074 244.635H302.895V270.31Z" fill="#263238"/>
<path d="M290.029 270.31H306.653L309.738 240.256H293.123L290.029 270.31Z" fill="#2F4D93"/>
<path opacity="0.3" d="M290.029 270.31H306.653L309.738 240.256H293.123L290.029 270.31Z" fill="black"/>
<path d="M287.809 270.31H305.105L308.199 240.256H290.903L287.809 270.31Z" fill="#2F4D93"/>
<path opacity="0.4" d="M303.576 267.94L306.181 242.627H292.433L289.828 267.94H303.576Z" fill="white"/>
<path d="M172.649 225.942L171.932 226.969L171.163 228.137C170.647 228.931 170.132 229.737 169.642 230.566C168.663 232.223 167.72 233.916 166.837 235.656C165.08 239.021 163.614 242.64 162.467 246.445C161.932 248.253 161.517 250.121 161.226 252.026C161.086 253.1 160.998 253.567 160.955 254.023C160.906 254.386 160.906 254.757 160.955 255.12C161.101 255.691 161.331 256.217 161.631 256.668C161.931 257.119 162.296 257.486 162.703 257.747C163.293 258.233 163.913 258.651 164.556 258.997C164.894 259.183 165.243 259.358 165.604 259.522C165.937 259.685 166.356 259.849 166.618 259.989V266.422C166.006 266.539 165.561 266.633 165.045 266.679C164.529 266.726 164.031 266.738 163.516 266.679C162.455 266.651 161.401 266.471 160.369 266.142C159.207 265.777 158.093 265.179 157.065 264.367C155.857 263.423 154.819 262.136 154.024 260.596C153.206 258.957 152.663 257.101 152.433 255.155C152.375 254.699 152.337 254.239 152.32 253.777C152.302 253.334 152.302 252.89 152.32 252.446V251.792C152.31 251.618 152.31 251.442 152.32 251.267L152.39 250.24C152.613 247.571 153.035 244.939 153.648 242.382C154.832 237.47 156.498 232.79 158.604 228.464C159.615 226.34 160.715 224.293 161.899 222.334C162.484 221.353 163.087 220.396 163.717 219.45C164.022 218.971 164.346 218.504 164.678 218.037C165.01 217.57 165.316 217.161 165.77 216.578L172.649 225.942Z" fill="#B55B52"/>
<path d="M164.879 259.849L168.952 255.856L171.268 267.041C171.268 267.041 167.658 268.828 164.905 266.422L164.879 259.849Z" fill="#B55B52"/>
<path d="M174.608 253.17L176.199 262.534L171.269 267.041L168.953 255.856L174.608 253.17Z" fill="#B55B52"/>
<path d="M200.364 183.021C200.181 183.71 200.312 184.399 200.653 184.55C200.994 184.702 201.413 184.282 201.588 183.593C201.763 182.904 201.64 182.204 201.308 182.052C200.976 181.9 200.548 182.32 200.364 183.021Z" fill="#263238"/>
<path d="M200.267 184.375C200.335 186.78 200.65 189.161 201.202 191.451C200.762 191.62 200.3 191.659 199.847 191.566C199.394 191.473 198.962 191.251 198.58 190.914L200.267 184.375Z" fill="#A02724"/>
<path d="M199.523 178.327C199.588 178.357 199.659 178.357 199.724 178.327C200.108 178.156 200.516 178.109 200.916 178.191C201.315 178.272 201.695 178.479 202.023 178.794C202.089 178.858 202.17 178.886 202.251 178.874C202.331 178.861 202.405 178.808 202.458 178.726C202.511 178.643 202.539 178.537 202.536 178.429C202.533 178.32 202.5 178.217 202.442 178.14C202.032 177.732 201.555 177.46 201.05 177.349C200.545 177.237 200.028 177.288 199.541 177.498C199.477 177.527 199.422 177.582 199.383 177.656C199.343 177.729 199.322 177.817 199.322 177.907C199.322 177.997 199.343 178.085 199.383 178.158C199.422 178.231 199.477 178.286 199.541 178.315L199.523 178.327Z" fill="#263238"/>
<path d="M181.197 185.566C182.176 192.21 183.146 204.388 179.668 208.825C179.668 208.825 181.031 215.562 190.278 215.562C200.443 215.562 195.138 208.825 195.138 208.825C189.588 207.05 189.728 201.551 190.698 196.39L181.197 185.566Z" fill="#B55B52"/>
<path d="M178.339 211.137C177.605 209 176.809 206.56 178.461 205.801C180.288 204.96 190.286 204.096 193.73 205.672C194.185 205.838 194.611 206.123 194.983 206.511C195.355 206.899 195.665 207.382 195.895 207.932C196.126 208.483 196.272 209.089 196.324 209.715C196.377 210.341 196.336 210.975 196.203 211.58L178.339 211.137Z" fill="#263238"/>
<path d="M213.255 222.532C215.397 227.681 217.695 232.982 220.02 238.073C222.345 243.164 224.783 248.231 227.388 252.855C228.035 254.022 228.708 255.132 229.372 256.241C229.704 256.813 230.054 257.28 230.395 257.805L230.901 258.576L231.033 258.775L231.094 258.868L231.155 258.973C231.562 259.499 232.052 259.898 232.588 260.141C233.414 260.525 234.266 260.802 235.132 260.97C239.38 261.543 243.663 261.476 247.901 260.771L249.229 266.959C248.049 267.66 246.948 268.127 245.777 268.711C244.606 269.295 243.452 269.68 242.281 270.077C239.798 270.909 237.254 271.363 234.695 271.431C233.258 271.462 231.824 271.27 230.421 270.859C228.698 270.402 227.074 269.437 225.666 268.034L225.081 267.391L224.941 267.228L224.853 267.111L224.687 266.889L224.006 265.99C223.56 265.395 223.07 264.823 222.668 264.192C221.794 262.966 220.973 261.74 220.212 260.479C217.159 255.55 214.342 250.367 211.778 244.962C210.502 242.3 209.273 239.61 208.09 236.894C206.901 234.15 205.756 231.464 204.646 228.569L213.255 222.532Z" fill="#B55B52"/>
<path d="M167.493 210.88C161.113 212.83 153.807 236.053 153.807 236.053L166.611 247.729C169.795 241.628 172.621 235.207 175.062 228.522C178.847 217.944 174.014 208.883 167.493 210.88Z" fill="#2F4D93"/>
<path opacity="0.2" d="M172.054 225.685L166.006 247.215L166.6 247.776C166.6 247.776 169.222 242.86 172.054 236.228V225.685Z" fill="black"/>
<path d="M205.599 211.335C205.599 211.335 212.835 222.264 206.001 289.868H169.616C169.371 282.407 172.876 246.024 167.492 210.868C171.513 209.834 175.58 209.147 179.667 208.813C184.819 208.41 189.985 208.41 195.137 208.813C198.668 209.288 202.166 210.131 205.599 211.335V211.335Z" fill="#2F4D93"/>
<path opacity="0.2" d="M201.551 230.892C202.5 238.565 204.982 245.754 208.735 251.699C208.884 247.344 208.945 243.432 208.936 239.941L201.551 230.892Z" fill="black"/>
<path d="M198.397 218.714C197.523 227.32 210.196 249.294 210.196 249.294L222.947 237.618C222.947 237.618 219.408 225.51 213.456 217.57C206.674 208.463 199.393 209.35 198.397 218.714Z" fill="#2F4D93"/>
<path d="M246.467 260.83L251.658 257.981L256.998 263.375C256.998 263.375 251.903 269.4 247.271 267.053L246.467 260.83Z" fill="#B55B52"/>
<path d="M255.085 257.7L259.001 261.437L256.973 263.375L251.633 257.981L255.085 257.7Z" fill="#B55B52"/>
<path d="M183.46 173.517C181.642 182.204 180.244 187.166 182.324 193.015C185.444 201.831 194.315 201.586 198.056 193.809C201.412 186.804 203.825 173.773 198.476 167.503C197.301 166.11 195.88 165.141 194.346 164.688C192.812 164.235 191.217 164.313 189.713 164.916C188.208 165.519 186.844 166.625 185.75 168.13C184.655 169.636 183.867 171.49 183.46 173.517V173.517Z" fill="#B55B52"/>
<path d="M197.305 173.61C194.683 183.581 191.598 194.533 184.064 192.455C179.204 191.112 178.82 180.662 177.072 175.91C175.525 171.742 175.621 163.359 178.82 163.253C177.387 160.475 184.632 150.305 189.579 155.676C190.846 153.341 199.979 146.463 206.744 157.38C213.116 167.702 209.995 176.307 197.305 173.61Z" fill="#263238"/>
<path d="M191.403 179.985C191.228 182.212 191.603 184.455 192.47 186.372C193.632 188.871 195.336 187.913 195.966 185.356C196.525 183.021 196.586 178.993 194.969 177.37C193.352 175.747 191.648 177.3 191.403 179.985Z" fill="#B55B52"/>
<path d="M247.237 410.854C248.111 410.854 248.985 410.691 249.238 410.165C249.31 410.026 249.349 409.861 249.349 409.692C249.349 409.523 249.31 409.358 249.238 409.22C249.122 408.974 248.941 408.795 248.731 408.717C247.595 408.309 245.235 410.119 245.121 410.2C245.092 410.22 245.068 410.253 245.053 410.293C245.039 410.333 245.035 410.379 245.043 410.422C245.048 410.464 245.063 410.503 245.085 410.534C245.106 410.565 245.134 410.587 245.165 410.597C245.849 410.764 246.542 410.85 247.237 410.854V410.854ZM248.32 409.091C248.422 409.072 248.525 409.072 248.626 409.091C248.692 409.107 248.755 409.143 248.809 409.196C248.863 409.248 248.908 409.316 248.941 409.395C249.054 409.663 249.019 409.792 248.941 409.862C248.626 410.457 246.904 410.469 245.637 410.224C246.468 409.617 247.379 409.232 248.32 409.091Z" fill="#2F4D93"/>
<path d="M245.182 410.597H245.252C246.073 410.107 247.699 408.145 247.568 407.094C247.568 406.849 247.411 406.557 246.974 406.487C246.817 406.469 246.659 406.493 246.509 406.557C246.359 406.621 246.22 406.724 246.1 406.861C245.226 407.807 245.051 410.259 245.042 410.364C245.039 410.401 245.043 410.439 245.054 410.473C245.064 410.508 245.081 410.539 245.103 410.562C245.127 410.581 245.154 410.593 245.182 410.597V410.597ZM246.843 406.919H246.939C247.227 406.919 247.245 407.118 247.253 407.164C247.332 407.783 246.222 409.324 245.383 409.99C245.453 408.962 245.758 407.987 246.257 407.199C246.42 407.013 246.628 406.914 246.843 406.919V406.919Z" fill="#2F4D93"/>
<path d="M237.273 410.387H244.073L245.62 389.335H238.82L237.273 410.387Z" fill="#B55B52"/>
<path d="M244.456 409.336H237.036C236.9 409.337 236.767 409.4 236.661 409.515C236.554 409.629 236.48 409.789 236.451 409.967L235.105 418C235.07 418.196 235.069 418.399 235.103 418.595C235.136 418.792 235.202 418.975 235.297 419.131C235.391 419.288 235.511 419.414 235.648 419.499C235.784 419.584 235.933 419.626 236.084 419.623C238.758 419.564 242.63 419.354 245.995 419.354C249.936 419.354 253.336 419.635 257.951 419.635C260.748 419.635 261.526 415.863 260.355 415.525C255.032 413.972 250.688 413.808 246.091 410.014C245.603 409.591 245.038 409.357 244.456 409.336Z" fill="#263238"/>
<path opacity="0.2" d="M245.611 389.347L244.824 400.194H238.016L238.811 389.347H245.611Z" fill="black"/>
<path d="M219.974 410.842C220.262 410.893 220.555 410.866 220.836 410.764C221.116 410.662 221.379 410.486 221.608 410.247C221.689 410.099 221.732 409.921 221.732 409.739C221.732 409.557 221.689 409.379 221.608 409.231C221.557 409.103 221.484 408.991 221.397 408.905C221.309 408.818 221.208 408.758 221.101 408.729C220.105 408.414 218.226 410.13 218.147 410.2C218.122 410.226 218.103 410.26 218.091 410.299C218.078 410.338 218.074 410.38 218.077 410.422C218.084 410.462 218.098 410.499 218.12 410.528C218.142 410.557 218.17 410.577 218.2 410.586C218.783 410.755 219.377 410.841 219.974 410.842V410.842ZM220.848 409.114C220.912 409.102 220.976 409.102 221.04 409.114C221.103 409.127 221.162 409.158 221.214 409.207C221.266 409.256 221.308 409.32 221.337 409.395C221.486 409.757 221.399 409.897 221.337 409.955C221.049 410.457 219.659 410.469 218.637 410.247C219.294 409.652 220.044 409.265 220.83 409.114H220.848Z" fill="#2F4D93"/>
<path d="M218.246 410.597H218.316C219.024 410.083 220.387 408.099 220.239 407.094C220.216 406.934 220.153 406.788 220.058 406.684C219.964 406.579 219.846 406.522 219.723 406.522C219.601 406.502 219.477 406.517 219.36 406.565C219.243 406.614 219.134 406.694 219.041 406.803C218.255 407.667 218.089 410.305 218.08 410.399C218.08 410.438 218.087 410.477 218.1 410.511C218.114 410.546 218.134 410.576 218.159 410.597C218.187 410.609 218.218 410.609 218.246 410.597V410.597ZM219.618 406.919H219.688C219.898 406.919 219.915 407.083 219.924 407.141C220.012 407.737 219.138 409.243 218.438 409.955C218.485 408.919 218.766 407.926 219.243 407.106C219.347 406.986 219.48 406.92 219.618 406.919V406.919Z" fill="#2F4D93"/>
<path d="M210.449 410.387H217.249L220.666 389.335H213.867L210.449 410.387Z" fill="#B55B52"/>
<path d="M217.728 409.336H210.089C209.954 409.338 209.823 409.401 209.718 409.516C209.613 409.63 209.541 409.79 209.513 409.967L208.167 418C208.135 418.197 208.137 418.401 208.173 418.597C208.209 418.793 208.277 418.976 208.372 419.132C208.468 419.288 208.589 419.413 208.726 419.498C208.863 419.583 209.012 419.626 209.163 419.623C211.829 419.564 213.131 419.354 216.487 419.354C218.559 419.354 221.207 419.635 224.065 419.635C226.923 419.635 227.29 415.863 226.119 415.525C220.875 413.995 220.516 411.882 218.838 409.862C218.529 409.511 218.134 409.324 217.728 409.336V409.336Z" fill="#263238"/>
<g opacity="0.2">
<path opacity="0.2" d="M213.869 389.347H220.669L218.903 400.194H212.104L213.869 389.347Z" fill="black"/>
</g>
<path d="M205.999 289.879C205.999 289.879 256.954 297.083 256.394 331.808C256.033 353.616 252.894 375.182 247.112 395.582H237.009C237.009 395.582 237.525 373.549 237.184 337.996C237.079 327.336 220.971 323.821 205.23 322.584C198.565 322.024 192.149 318.987 186.706 313.814C181.264 308.642 177.012 301.541 174.43 293.312L173.355 289.879H205.999Z" fill="#263238"/>
<path d="M249.587 391.962C249.639 391.962 248.931 398.349 248.931 398.349H234.947L234.562 392.651L249.587 391.962Z" fill="#2F4D93"/>
<path d="M195.093 289.879C195.093 289.879 232.028 306.226 232.964 326.495C234.712 363.788 220.981 395.582 220.981 395.582H210.782C210.782 395.582 214.653 379.819 216.026 346.029C217.774 303.587 158.49 345.959 169.599 289.879H195.093Z" fill="#263238"/>
<path d="M224.068 391.962C224.12 391.962 222.783 398.349 222.783 398.349H208.799L209.052 392.651L224.068 391.962Z" fill="#2F4D93"/>
<path d="M221.734 325.631H164.924C164.924 323.333 165.607 321.13 166.823 319.505C168.039 317.88 169.689 316.968 171.409 316.968H215.249C216.969 316.968 218.618 317.88 219.834 319.505C221.051 321.13 221.734 323.333 221.734 325.631V325.631Z" fill="#2F4D93"/>
<path d="M167.553 325.62L158.988 421.549H160.824L171.688 325.62H167.553Z" fill="#2F4D93"/>
<path opacity="0.4" d="M167.553 325.62L158.988 421.549H160.824L171.688 325.62H167.553Z" fill="black"/>
<path d="M179.012 325.62L178.846 421.549H180.672L183.146 325.62H179.012Z" fill="#2F4D93"/>
<path opacity="0.4" d="M179.012 325.62L178.846 421.549H180.672L183.146 325.62H179.012Z" fill="black"/>
<path d="M219.102 325.62L227.667 421.549H225.832L214.977 325.62H219.102Z" fill="#2F4D93"/>
<path opacity="0.4" d="M219.102 325.62L227.667 421.549H225.832L214.977 325.62H219.102Z" fill="black"/>
<path d="M207.644 325.62L207.81 421.549H205.983L203.51 325.62H207.644Z" fill="#2F4D93"/>
<path opacity="0.4" d="M207.644 325.62L207.81 421.549H205.983L203.51 325.62H207.644Z" fill="black"/>
</svg>
